<?xml version="1.0" standalone="no"?>
<!DOCTYPE svg PUBLIC "-//W3C//DTD SVG 20010904//EN"
 "http://www.w3.org/TR/2001/REC-SVG-20010904/DTD/svg10.dtd">
<svg version="1.0" xmlns="http://www.w3.org/2000/svg"
 width="600.000000pt" height="75.000000pt" viewBox="0 0 600.000000 75.000000"
 preserveAspectRatio="xMidYMid meet">

<g transform="translate(0.000000,75.000000) scale(0.100000,-0.100000)"
fill="#000000" stroke="none">
<path d="M1207 643 c-4 -3 -7 -48 -7 -100 0 -76 3 -93 15 -93 14 0 20 17 16
48 -3 23 19 12 34 -18 9 -18 23 -30 36 -30 19 0 19 2 -5 37 -26 37 -26 37 -6
58 24 25 25 35 6 35 -8 0 -23 -11 -34 -25 -25 -31 -34 -32 -32 -2 6 74 -3 111
-23 90z"/>
<path d="M1356 643 c-3 -3 -6 -48 -6 -100 0 -76 3 -93 15 -93 12 0 15 17 15
94 0 87 -7 116 -24 99z"/>
<path d="M73 633 c-10 -3 -13 -61 -13 -241 0 -130 4 -243 8 -250 7 -9 62 -12
243 -10 l234 3 0 250 0 250 -230 2 c-126 1 -236 -1 -242 -4z m292 -42 c-3 -6
-11 -11 -17 -11 -6 0 -6 6 2 15 14 17 26 13 15 -4z m62 -33 c-3 -8 -6 -5 -6 6
-1 11 2 17 5 13 3 -3 4 -12 1 -19z m-79 -23 c5 -23 -28 -95 -43 -95 -41 0 -46
59 -8 95 31 28 46 28 51 0z m-98 -15 c0 -5 -5 -10 -11 -10 -5 0 -7 5 -4 10 3
6 8 10 11 10 2 0 4 -4 4 -10z m187 -44 c9 -55 -36 -98 -66 -62 -9 11 -8 23 4
52 31 75 51 78 62 10z m-197 -16 c25 -35 23 -64 -5 -67 -11 -1 -33 -5 -49 -9
l-29 -7 6 42 c10 74 41 91 77 41z m237 -72 c-3 -8 -6 -5 -6 6 -1 11 2 17 5 13
3 -3 4 -12 1 -19z m-166 -37 c20 -16 23 -28 24 -87 2 -98 -4 -107 -68 -99 -29
4 -56 12 -62 19 -5 6 -22 17 -37 23 -43 19 -49 81 -12 118 9 8 33 15 53 15 22
0 44 6 51 15 16 19 23 19 51 -4z m153 -7 c8 -21 -20 -84 -37 -84 -20 0 -67 39
-67 55 0 39 90 65 104 29z"/>
<path d="M3562 617 c-12 -13 -29 -45 -38 -72 -17 -47 -17 -47 -29 -24 -7 13
-19 43 -26 67 -12 42 -12 42 -59 42 -54 0 -81 -20 -63 -48 12 -20 35 -22 41
-4 2 7 -5 12 -18 12 -12 0 -18 5 -15 10 3 6 22 10 41 10 32 0 34 -2 28 -27
-11 -48 -34 -97 -56 -120 -27 -29 -52 -30 -45 -2 4 15 1 19 -11 17 -9 -2 -17
-12 -17 -23 0 -15 8 -21 32 -23 41 -4 79 34 96 95 6 24 14 43 17 43 3 0 14
-21 24 -47 42 -101 142 -169 210 -143 26 10 40 56 14 47 -7 -2 -13 -10 -13
-18 0 -24 -56 -22 -95 3 l-35 23 55 5 c45 4 56 9 59 25 3 19 3 19 -16 3 -38
-34 -78 -18 -54 21 8 12 12 12 25 2 13 -11 16 -11 16 2 0 8 3 24 6 34 6 15 4
16 -7 6 -19 -19 -29 -16 -29 7 0 25 25 36 45 20 12 -10 15 -9 15 4 0 12 -10
16 -45 16 -31 0 -43 -4 -40 -12 7 -19 -18 -108 -30 -109 -25 -2 -26 29 -4 86
21 51 28 60 49 60 15 0 25 6 25 15 0 24 -29 22 -53 -3z"/>
<path d="M3842 624 c-12 -8 -22 -20 -22 -27 0 -8 3 -8 12 1 18 18 46 14 58 -8
6 -11 13 -49 17 -84 5 -61 4 -66 -22 -90 -31 -29 -82 -35 -91 -11 -10 26 16
47 50 41 29 -5 30 -5 12 9 -25 19 -36 19 -64 -1 -29 -20 -28 -50 3 -70 36 -23
85 -4 136 54 72 83 109 175 74 189 -22 8 -30 -4 -16 -21 16 -19 1 -69 -34
-111 l-24 -30 -1 53 c0 57 -19 106 -45 116 -21 8 -17 9 -43 -10z"/>
<path d="M610 540 l0 -90 46 0 c25 0 54 5 65 10 24 13 25 53 2 76 -13 13 -14
19 -5 22 6 2 12 12 12 22 0 31 -28 50 -76 50 l-44 0 0 -90z m75 56 c16 -12 17
-16 6 -30 -7 -9 -22 -16 -32 -16 -14 0 -19 7 -19 30 0 33 15 38 45 16z m15
-81 c17 -20 -3 -45 -36 -45 -20 0 -24 5 -24 30 0 25 4 30 24 30 13 0 29 -7 36
-15z"/>
<path d="M4704 611 c-40 -24 -74 -68 -81 -104 -3 -16 -14 -32 -23 -35 -13 -5
-15 -12 -9 -29 5 -13 12 -23 17 -23 5 0 15 -13 21 -29 18 -41 71 -90 109 -97
25 -5 32 -3 32 9 0 9 -8 18 -17 20 -17 4 -17 5 0 6 10 1 21 -9 26 -23 9 -21
13 -22 54 -16 60 9 101 41 130 101 14 30 27 47 31 40 12 -18 22 -13 24 14 1
14 -3 25 -8 25 -6 0 -10 -5 -10 -12 0 -6 -7 -3 -15 8 -8 10 -15 28 -15 40 0
31 -54 100 -87 111 -61 20 -81 0 -31 -32 17 -11 40 -32 51 -47 19 -26 19 -27
1 -45 -20 -20 -74 -30 -74 -13 0 6 -7 10 -15 10 -8 0 -15 -7 -15 -15 0 -22
-13 -18 -50 15 -41 37 -50 37 -50 5 0 -24 -22 -35 -34 -17 -16 27 67 122 107
122 18 0 23 15 8 24 -5 4 -12 0 -14 -6 -4 -10 -6 -10 -6 0 -1 17 -21 15 -57
-7z m-87 -173 c-3 -8 -6 -5 -6 6 -1 11 2 17 5 13 3 -3 4 -12 1 -19z m228 -118
c-26 -11 -45 -12 -45 -2 0 4 15 8 33 9 26 1 28 0 12 -7z"/>
<path d="M4801 614 c0 -11 3 -14 6 -6 3 7 2 16 -1 19 -3 4 -6 -2 -5 -13z"/>
<path d="M2010 587 c0 -14 5 -29 10 -32 6 -3 10 -2 10 3 0 5 9 12 21 15 24 7
39 -21 18 -34 -8 -5 -9 -9 -3 -9 19 0 36 27 32 52 -2 14 -9 22 -18 19 -21 -5
-33 -4 -52 4 -14 6 -18 2 -18 -18z"/>
<path d="M775 515 c0 -55 3 -65 18 -65 14 0 17 9 17 46 0 37 4 47 19 51 26 7
36 33 13 33 -10 0 -23 -5 -30 -12 -9 -9 -12 -9 -12 0 0 7 -6 12 -12 12 -9 0
-13 -20 -13 -65z"/>
<path d="M886 558 c-50 -72 28 -153 95 -99 26 21 32 79 10 105 -21 25 -86 21
-105 -6z m79 -43 c0 -34 -3 -40 -22 -43 -16 -2 -26 4 -34 21 -15 33 4 69 34
65 18 -2 22 -10 22 -43z"/>
<path d="M1055 566 c-27 -20 -27 -92 0 -112 62 -46 144 36 101 101 -19 29 -70
34 -101 11z m76 -38 c9 -33 -10 -62 -37 -57 -20 4 -31 46 -20 76 10 24 49 11
57 -19z"/>
<path d="M1410 572 c0 -5 11 -37 25 -71 19 -49 22 -68 14 -83 -12 -23 -6 -33
14 -25 8 3 28 46 45 96 27 81 29 91 13 91 -12 0 -21 -14 -29 -47 -14 -50 -23
-48 -42 10 -6 20 -18 37 -26 37 -8 0 -14 -4 -14 -8z"/>
<path d="M1560 515 c0 -56 3 -65 18 -65 14 0 17 7 14 38 -3 27 1 44 13 56 27
27 40 14 45 -45 3 -30 8 -53 13 -51 4 1 12 2 17 2 13 0 13 71 0 104 -7 20 -17
26 -38 26 -15 0 -33 -5 -40 -12 -9 -9 -12 -9 -12 0 0 7 -7 12 -15 12 -12 0
-15 -14 -15 -65z"/>
<path d="M1925 570 c-4 -6 -4 -23 0 -38 6 -23 8 -24 16 -10 11 20 39 13 39
-10 0 -15 1 -15 16 0 23 22 10 61 -17 53 -11 -4 -26 -2 -34 5 -10 8 -15 8 -20
0z"/>
<path d="M3678 510 c2 -38 6 -70 10 -70 3 0 16 12 29 28 l22 27 1 -27 c0 -41
14 -34 51 23 18 29 42 60 53 70 20 19 19 19 -15 19 -23 0 -30 -3 -20 -9 11 -7
10 -16 -9 -47 -26 -40 -34 -33 -28 22 4 30 1 34 -19 34 -19 0 -22 -4 -17 -27
3 -17 -1 -36 -10 -48 -14 -19 -15 -17 -16 28 0 38 -3 47 -17 47 -16 0 -18 -9
-15 -70z"/>
<path d="M4025 555 c-26 -25 -33 -71 -16 -103 5 -9 12 -25 15 -34 3 -10 14
-18 25 -18 14 0 19 5 15 15 -4 9 4 25 19 39 32 30 43 70 28 102 -14 32 -54 32
-86 -1z m63 -24 c5 -53 -45 -108 -61 -67 -7 18 7 72 24 92 18 22 34 11 37 -25z
m-38 -112 c0 -6 -4 -7 -10 -4 -5 3 -10 11 -10 16 0 6 5 7 10 4 6 -3 10 -11 10
-16z"/>
<path d="M4136 566 c8 -20 -15 -116 -28 -116 -5 0 -7 -4 -4 -9 3 -5 15 -7 26
-4 14 4 20 0 20 -11 0 -12 -5 -14 -24 -6 -17 6 -26 5 -30 -3 -2 -7 -5 -3 -5 7
-1 15 -4 17 -12 9 -21 -21 0 -30 80 -31 73 -2 80 0 74 16 -6 16 -5 16 14 0 11
-10 27 -18 35 -18 21 0 18 33 -4 42 -19 8 -25 43 -9 52 4 3 19 -11 32 -32 28
-44 75 -70 98 -55 19 12 27 43 12 43 -6 0 -11 -7 -11 -15 0 -39 -60 -3 -89 52
-17 33 -14 40 26 68 l38 25 -33 0 c-18 0 -31 -4 -28 -9 3 -4 -6 -19 -19 -31
-28 -26 -33 -16 -9 18 15 21 14 22 -14 22 -25 0 -29 -3 -25 -22 2 -13 -2 -43
-9 -67 l-13 -44 -18 27 c-18 26 -18 27 5 46 33 27 14 54 -40 58 -34 3 -41 0
-36 -12z m59 -22 c0 -10 -7 -20 -16 -22 -13 -2 -15 3 -11 23 5 29 27 29 27 -1z
m-17 -68 c9 -20 10 -34 2 -66 -2 -13 -29 48 -30 68 0 29 14 28 28 -2z m33 -59
c-10 -9 -11 -8 -5 6 3 10 9 15 12 12 3 -3 0 -11 -7 -18z"/>
<path d="M2118 563 c-6 -33 -3 -69 8 -80 17 -18 27 -16 20 3 -4 10 1 22 11 30
15 10 19 10 25 -4 4 -12 7 -7 7 15 1 33 -14 53 -22 31 -3 -11 -9 -11 -26 0
-11 7 -22 9 -23 5z"/>
<path d="M2270 560 c12 -7 12 -12 2 -22 -17 -17 -15 -28 6 -28 13 0 14 2 3 9
-9 6 -10 11 -2 15 17 11 13 36 -6 36 -15 0 -16 -2 -3 -10z"/>
<path d="M2302 545 c4 -33 22 -33 26 0 2 18 -1 25 -13 25 -12 0 -15 -7 -13
-25z m15 -17 c-3 -7 -5 -2 -5 12 0 14 2 19 5 13 2 -7 2 -19 0 -25z"/>
<path d="M2350 542 c0 -18 5 -32 10 -32 6 0 8 11 4 28 -10 39 -14 40 -14 4z"/>
<path d="M2396 556 c3 -8 1 -17 -5 -21 -15 -9 -14 -25 2 -25 7 0 14 13 15 30
1 17 -2 30 -8 30 -5 0 -7 -6 -4 -14z"/>
<path d="M2450 543 c0 -25 0 -26 20 -8 17 15 20 16 20 3 0 -19 30 -32 43 -19
12 12 2 41 -13 41 -6 0 -9 -4 -5 -9 3 -5 1 -12 -5 -16 -5 -3 -10 2 -10 12 0
13 -8 19 -25 21 -21 1 -25 -3 -25 -25z"/>
<path d="M2550 548 c0 -32 17 -46 26 -23 4 9 0 24 -10 33 -15 15 -16 14 -16
-10z m17 -20 c-3 -8 -6 -5 -6 6 -1 11 2 17 5 13 3 -3 4 -12 1 -19z"/>
<path d="M2760 544 c0 -22 2 -25 15 -14 8 7 15 19 15 26 0 8 -7 14 -15 14 -10
0 -15 -10 -15 -26z"/>
<path d="M2934 554 c3 -8 2 -12 -4 -9 -6 3 -10 0 -10 -7 0 -7 13 -14 30 -15
17 -1 30 2 30 7 0 15 -18 21 -23 8 -3 -7 -6 -3 -6 10 -1 12 -6 22 -12 22 -6 0
-8 -7 -5 -16z"/>
<path d="M3083 563 c-13 -2 -23 -9 -23 -14 0 -6 4 -8 9 -5 5 3 11 -3 14 -14 5
-21 27 -28 27 -9 0 5 -4 7 -10 4 -5 -3 -10 1 -10 10 0 9 5 13 10 10 6 -3 10 1
10 9 0 9 -1 15 -2 15 -2 -1 -13 -4 -25 -6z"/>
<path d="M5080 561 c0 -9 -9 -12 -28 -8 -35 7 -55 -4 -46 -26 7 -18 34 -19 47
-2 5 7 10 7 15 0 11 -16 34 -17 44 -3 5 8 11 9 16 3 10 -14 42 -18 42 -5 0 5
5 10 11 10 5 0 8 -4 5 -9 -3 -5 5 -8 19 -8 14 0 22 3 19 8 -3 5 0 9 5 9 6 0
11 5 11 10 0 6 -6 10 -14 10 -8 0 -17 6 -19 13 -4 10 -6 10 -6 0 -1 -16 -33
-17 -49 -1 -9 9 -12 9 -12 0 0 -7 -8 -12 -18 -12 -10 0 -23 5 -30 12 -9 9 -12
9 -12 -1z"/>
<path d="M5280 555 c-10 -12 -10 -18 0 -30 14 -17 40 -20 40 -5 0 5 -7 7 -15
4 -9 -4 -15 0 -15 10 0 9 7 16 16 16 8 0 12 5 9 10 -9 14 -21 12 -35 -5z"/>
<path d="M5614 559 c-3 -5 0 -17 8 -26 9 -12 9 -15 1 -9 -7 4 -13 3 -13 -3 0
-13 101 -11 119 3 11 8 13 8 7 -1 -4 -9 -1 -13 9 -13 11 0 15 5 11 15 -3 8 -1
15 4 15 6 0 10 -6 10 -13 0 -9 14 -13 40 -14 33 -1 39 2 29 13 -9 11 -8 14 5
14 9 0 16 -6 16 -14 0 -22 87 -17 93 5 4 16 -1 18 -85 19 -48 1 -74 -3 -80
-14 -5 -6 -8 0 -8 14 0 16 -3 21 -8 13 -5 -8 -27 -12 -56 -11 -28 2 -50 -2
-55 -10 -5 -9 -12 -8 -27 3 -16 13 -16 14 -1 9 21 -7 23 1 2 9 -8 4 -17 2 -21
-4z"/>
<path d="M2591 538 c1 -18 2 -19 6 -5 2 9 9 15 14 12 5 -4 9 -1 9 4 0 6 -7 11
-15 11 -9 0 -15 -9 -14 -22z"/>
<path d="M2665 543 c-13 -12 -19 -13 -25 -4 -5 10 -9 9 -13 -2 -12 -32 45 -31
58 1 6 15 8 15 15 -3 l9 -20 1 20 1 20 10 -20 c8 -18 9 -19 6 -1 -3 25 -41 30
-62 9z"/>
<path d="M2805 539 c-4 -11 -4 -23 -2 -26 9 -8 27 7 27 22 0 23 -18 27 -25 4z"/>
<path d="M2861 552 c-1 -7 -6 -10 -12 -6 -7 4 -10 1 -7 -6 6 -20 48 -23 48 -4
0 8 -4 13 -9 10 -5 -4 -12 0 -14 6 -4 10 -6 10 -6 0z"/>
<path d="M2981 555 c0 -5 4 -17 9 -25 5 -8 10 -11 10 -6 0 5 7 3 15 -4 17 -14
28 -8 31 16 3 20 -22 29 -40 15 -11 -9 -15 -9 -19 1 -3 7 -6 9 -6 3z"/>
<path d="M5399 543 c0 -11 -3 -13 -6 -5 -7 19 -22 14 -20 -7 1 -18 10 -19 107
-9 8 0 18 6 22 12 5 7 8 5 8 -5 0 -28 69 -16 70 12 0 3 -35 6 -77 6 -43 0 -72
-2 -65 -4 6 -3 12 -10 12 -16 -1 -7 -9 -2 -19 11 -23 27 -31 28 -32 5z"/>
<path d="M5331 533 c-1 -14 5 -23 14 -23 9 0 15 9 14 23 0 21 -1 21 -8 2 l-8
-20 -5 20 c-5 18 -6 18 -7 -2z"/>
<path d="M1994 475 c-3 -8 -2 -20 2 -27 5 -8 0 -7 -16 3 -25 16 -55 15 -44 -2
3 -5 1 -9 -5 -9 -5 0 -15 8 -20 18 -9 15 -10 15 -11 -6 0 -23 41 -48 66 -38 7
3 14 -8 18 -28 4 -18 18 -43 31 -56 l26 -24 27 29 c15 17 18 21 5 11 -32 -26
-67 -13 -58 22 3 15 16 34 27 43 22 17 11 34 -15 23 -16 -6 -33 28 -22 46 3 5
4 10 0 10 -3 0 -8 -7 -11 -15z"/>
<path d="M2317 483 c-4 -3 -7 -18 -6 -32 1 -26 1 -25 10 3 9 31 7 41 -4 29z"/>
<path d="M2430 456 c0 -25 25 -42 36 -25 4 7 10 6 19 -1 9 -8 15 -8 20 0 3 6
11 8 16 5 5 -4 9 2 10 12 0 16 1 16 9 -2 7 -17 9 -17 9 -2 1 21 21 23 21 2 0
-21 20 -19 21 3 0 14 2 14 9 -3 7 -17 9 -17 9 -2 1 20 21 24 21 3 0 -17 27
-29 35 -16 4 6 1 10 -4 10 -6 0 -11 6 -11 13 0 18 -121 21 -132 4 -6 -9 -8 -9
-8 1 0 19 -24 14 -38 -8 -7 -12 -17 -18 -22 -15 -16 10 -11 33 8 38 13 4 11 5
-5 6 -18 1 -23 -4 -23 -23z m70 -12 c0 -8 -5 -12 -10 -9 -6 4 -8 11 -5 16 9
14 15 11 15 -7z"/>
<path d="M2740 455 c0 -13 5 -27 11 -31 8 -4 9 1 4 17 -5 16 -4 21 3 14 5 -5
12 -18 14 -29 2 -14 6 -10 15 14 10 27 10 30 -3 20 -8 -8 -14 -8 -14 -2 0 5
-7 12 -15 16 -11 4 -15 -1 -15 -19z"/>
<path d="M2822 468 c2 -6 11 -13 19 -16 12 -3 12 -2 0 6 -11 8 -10 11 5 15 16
4 15 5 -4 6 -14 1 -22 -4 -20 -11z"/>
<path d="M5320 455 c0 -17 5 -25 18 -25 14 0 15 2 2 10 -8 5 -10 10 -5 10 20
0 37 -18 31 -31 -4 -8 0 -5 8 5 18 22 21 40 6 31 -5 -3 -10 -1 -10 6 0 7 -3 9
-6 6 -4 -3 -15 -2 -25 4 -16 8 -19 6 -19 -16z"/>
<path d="M5430 453 l1 -28 15 25 c14 24 15 24 9 2 -6 -22 -4 -23 37 -21 35 2
44 6 45 21 2 23 -26 36 -37 18 -6 -9 -13 -9 -28 -1 -32 17 -42 13 -42 -16z"/>
<path d="M5610 464 c0 -14 -3 -14 -15 -4 -12 10 -19 10 -27 2 -15 -15 3 -35
27 -30 19 3 41 48 25 48 -6 0 -10 -7 -10 -16z m-20 -14 c0 -5 -5 -10 -11 -10
-5 0 -7 5 -4 10 3 6 8 10 11 10 2 0 4 -4 4 -10z"/>
<path d="M5650 471 c0 -5 -3 -16 -6 -25 -9 -22 22 -21 35 2 9 15 10 15 11 1 0
-21 45 -20 45 1 0 8 -6 14 -13 12 -7 -1 -22 2 -32 8 -16 8 -20 8 -20 -4 0 -8
-4 -17 -9 -20 -5 -4 -7 3 -4 14 3 11 3 20 -1 20 -3 0 -6 -4 -6 -9z"/>
<path d="M5775 455 c0 -14 3 -25 8 -25 4 0 7 9 7 20 0 11 4 20 9 20 5 0 7 -9
4 -20 -4 -15 0 -20 13 -20 16 0 17 2 4 10 -9 6 -10 10 -3 10 6 0 15 -4 18 -10
9 -14 45 -12 45 3 0 8 4 7 10 -3 6 -10 10 -11 10 -2 0 6 5 12 11 12 5 0 7 -5
3 -12 -4 -7 -3 -8 5 -4 21 13 5 31 -27 31 -18 0 -32 -3 -32 -8 0 -4 -13 -1
-30 8 -41 21 -55 19 -55 -10z"/>
<path d="M2099 448 c-10 -18 -9 -20 6 -14 12 4 16 2 12 -8 -3 -8 -1 -17 6 -20
7 -2 -6 -5 -28 -5 -26 -1 -35 -4 -27 -10 8 -4 27 -7 43 -5 18 2 28 0 24 -6
-10 -16 12 -12 29 6 19 18 20 38 6 65 -9 15 -15 17 -30 9 -24 -13 -33 -13 -25
0 3 6 4 10 1 10 -3 0 -10 -10 -17 -22z"/>
<path d="M2335 460 c-10 -17 15 -42 30 -30 6 5 14 7 17 5 3 -3 8 3 11 15 3 11
1 20 -4 20 -5 0 -9 -5 -9 -12 0 -9 -3 -9 -12 0 -15 15 -25 15 -33 2z m25 -10
c0 -5 -4 -10 -10 -10 -5 0 -10 5 -10 10 0 6 5 10 10 10 6 0 10 -4 10 -10z"/>
<path d="M2681 448 c1 -18 2 -19 6 -5 2 9 9 15 14 11 5 -3 7 -9 5 -13 -3 -4 1
-8 9 -8 8 0 15 7 15 14 0 8 -4 11 -10 8 -5 -3 -10 -1 -10 4 0 6 -7 11 -15 11
-9 0 -15 -9 -14 -22z"/>
<path d="M2860 455 c-7 -8 -20 -15 -28 -15 -12 0 -13 -3 -4 -12 8 -8 15 -8 25
0 10 9 16 9 25 0 8 -8 9 -5 5 12 -5 17 -3 21 7 15 9 -5 11 -4 6 3 -10 16 -21
15 -36 -3z"/>
<path d="M2911 448 c1 -17 2 -19 6 -5 5 21 23 23 23 2 0 -8 5 -15 10 -15 14 0
13 13 -2 28 -19 19 -38 14 -37 -10z"/>
<path d="M2960 463 c0 -11 20 -40 20 -29 0 5 7 2 16 -5 15 -12 16 -11 10 9 -9
28 1 28 24 0 l19 -23 -6 24 c-4 17 -3 22 5 17 7 -4 12 -2 12 3 0 13 -50 11
-67 -2 -9 -6 -13 -6 -13 2 0 6 -4 11 -10 11 -5 0 -10 -3 -10 -7z"/>
<path d="M5556 401 c-4 -6 -2 -11 5 -11 10 0 10 -3 1 -12 -17 -17 -15 -28 4
-28 8 0 13 4 9 9 -3 5 -1 12 5 16 5 3 10 -1 10 -9 0 -19 26 -21 33 -3 7 20 -9
41 -26 34 -8 -3 -19 -1 -25 5 -6 6 -12 6 -16 -1z m51 -33 c-3 -8 -6 -5 -6 6
-1 11 2 17 5 13 3 -3 4 -12 1 -19z"/>
<path d="M2495 390 c-4 -6 -2 -17 5 -24 8 -11 8 -15 -2 -19 -7 -3 -1 -5 15 -4
15 1 27 6 27 13 0 6 7 11 15 11 8 0 15 -6 15 -12 0 -7 12 -12 26 -12 18 0 22
2 13 8 -11 7 -9 9 6 9 15 0 17 2 6 13 -10 10 -15 8 -27 -8 -15 -19 -15 -19
-12 -1 4 23 -26 30 -42 11 -14 -17 -43 -8 -36 11 6 16 0 19 -9 4z"/>
<path d="M5640 374 c0 -14 4 -23 9 -19 11 6 10 45 -1 45 -4 0 -8 -12 -8 -26z"/>
<path d="M5671 393 c0 -5 4 -17 9 -28 8 -18 9 -17 9 8 1 15 -3 27 -9 27 -5 0
-10 -3 -9 -7z"/>
<path d="M2250 379 c0 -5 7 -9 15 -9 8 0 15 -5 15 -11 0 -6 -7 -9 -15 -5 -8 3
-15 1 -15 -4 0 -15 37 -12 43 3 3 6 6 3 6 -7 1 -15 4 -17 13 -8 8 8 8 15 -1
25 -13 17 -61 29 -61 16z"/>
<path d="M2373 374 c-17 -17 -16 -25 1 -18 8 3 17 1 21 -5 3 -6 14 -11 23 -10
11 0 12 3 5 6 -7 2 -13 9 -13 14 0 6 5 7 10 4 6 -3 10 -1 10 6 0 6 -8 9 -20 6
-10 -3 -20 -1 -22 3 -2 4 -9 2 -15 -6z"/>
<path d="M2440 365 c0 -14 4 -25 9 -25 4 0 6 11 3 25 -2 14 -6 25 -8 25 -2 0
-4 -11 -4 -25z"/>
<path d="M2760 367 c0 -15 4 -27 8 -27 10 0 9 36 -1 46 -4 4 -7 -5 -7 -19z"/>
<path d="M2940 365 c0 -16 6 -25 15 -25 8 0 15 6 15 13 0 9 2 9 8 0 9 -14 52
-14 49 0 -1 5 4 12 11 14 6 3 12 -2 12 -11 0 -11 9 -16 26 -16 18 0 25 5 22
17 -2 9 -10 19 -18 21 -13 5 -13 3 -1 -12 12 -14 12 -16 -3 -10 -9 3 -16 10
-16 14 0 5 -19 7 -42 6 -24 -1 -51 2 -60 6 -15 7 -18 4 -18 -17z m70 -5 c0 -5
-4 -10 -10 -10 -5 0 -10 5 -10 10 0 6 5 10 10 10 6 0 10 -4 10 -10z"/>
<path d="M3112 365 c0 -16 2 -22 5 -12 2 9 2 23 0 30 -3 6 -5 -1 -5 -18z"/>
<path d="M2640 369 c0 -5 5 -7 10 -4 6 3 10 8 10 11 0 2 -4 4 -10 4 -5 0 -10
-5 -10 -11z"/>
<path d="M2721 358 c0 -22 1 -22 8 -3 l8 20 5 -20 c5 -18 6 -18 7 3 1 13 -5
22 -14 22 -9 0 -15 -9 -14 -22z"/>
<path d="M2785 370 c-7 -12 2 -30 16 -30 6 0 7 5 4 10 -3 6 -1 10 5 10 6 0 8
5 5 10 -3 6 -10 10 -15 10 -5 0 -12 -4 -15 -10z"/>
<path d="M2830 369 c0 -5 5 -7 10 -4 6 3 10 8 10 11 0 2 -4 4 -10 4 -5 0 -10
-5 -10 -11z"/>
<path d="M2860 363 c0 -15 2 -16 10 -3 9 13 10 13 10 0 0 -9 10 -16 25 -18 19
-1 25 3 25 18 0 12 -7 20 -16 20 -14 0 -14 -3 -4 -15 11 -13 10 -14 -4 -9 -9
3 -16 10 -16 15 0 5 -7 9 -15 9 -8 0 -15 -8 -15 -17z"/>
<path d="M2690 355 c0 -8 4 -15 10 -15 5 0 7 7 4 15 -4 8 -8 15 -10 15 -2 0
-4 -7 -4 -15z"/>
<path d="M3471 345 c-1 -23 2 -26 9 -15 6 10 10 11 10 3 0 -7 9 -13 20 -13 15
0 20 7 20 25 0 22 -3 24 -24 15 -17 -6 -26 -5 -30 3 -2 7 -5 -1 -5 -18z"/>
<path d="M3607 363 c-11 -10 -8 -43 3 -43 6 0 10 11 10 25 0 26 -2 29 -13 18z"/>
<path d="M3700 360 c0 -6 -4 -8 -10 -5 -5 3 -10 -3 -10 -15 0 -12 4 -19 9 -16
5 4 12 0 14 -6 4 -8 6 -7 6 4 1 9 5 18 10 20 5 2 3 9 -5 16 -9 8 -14 9 -14 2z"/>
<path d="M3793 355 c4 -9 7 -21 7 -26 0 -15 17 -10 24 6 3 9 -3 19 -16 26 -18
10 -20 9 -15 -6z"/>
<path d="M3859 362 c-24 -4 -12 -41 12 -39 20 1 21 4 11 27 -4 9 -14 14 -23
12z"/>
<path d="M3925 350 c13 -42 18 -42 29 0 3 14 3 19 0 12 -5 -10 -9 -10 -21 0
-14 11 -15 10 -8 -12z"/>
<path d="M4020 360 c0 -6 -4 -8 -10 -5 -5 3 -10 -3 -10 -15 0 -12 4 -19 9 -16
5 4 12 0 14 -6 4 -10 6 -10 6 0 1 7 6 10 12 6 7 -4 9 2 7 17 -3 23 -28 40 -28
19z"/>
<path d="M4067 364 c-13 -14 -8 -46 7 -41 8 3 16 1 19 -6 2 -7 4 3 4 21 0 18
-4 28 -7 21 -6 -8 -9 -8 -11 0 -3 7 -8 9 -12 5z"/>
<path d="M4137 362 c-2 -4 4 -15 15 -24 17 -17 18 -17 18 1 0 19 -26 37 -33
23z"/>
<path d="M3563 339 c15 -24 26 -25 24 -1 0 10 -9 19 -19 19 -15 2 -16 -1 -5
-18z"/>
<path d="M3650 340 c0 -11 4 -20 8 -20 4 0 8 9 8 20 0 11 -4 20 -8 20 -4 0 -8
-9 -8 -20z"/>
<path d="M3765 340 c10 -11 20 -18 23 -15 7 6 -18 35 -31 35 -5 0 -2 -9 8 -20z"/>
<path d="M3972 340 c0 -14 2 -19 5 -12 2 6 2 18 0 25 -3 6 -5 1 -5 -13z"/>
<path d="M4182 340 c0 -14 2 -19 5 -12 2 6 2 18 0 25 -3 6 -5 1 -5 -13z"/>
<path d="M4200 340 c0 -11 5 -20 10 -20 6 0 10 9 10 20 0 11 -4 20 -10 20 -5
0 -10 -9 -10 -20z"/>
<path d="M4240 348 c0 -9 5 -20 10 -23 13 -8 13 5 0 25 -8 13 -10 13 -10 -2z"/>
<path d="M1037 343 c-4 -3 -7 -48 -7 -100 0 -74 3 -93 14 -93 10 0 16 13 18
38 l3 37 23 -37 c14 -23 31 -38 43 -38 19 0 18 2 -5 37 l-25 36 20 29 c16 22
17 28 5 28 -8 0 -23 -11 -34 -25 -11 -14 -23 -25 -26 -25 -3 0 -6 27 -6 60 0
55 -6 70 -23 53z"/>
<path d="M610 240 l0 -90 49 0 c72 0 106 44 65 85 -13 12 -14 19 -5 28 33 33
-1 67 -68 67 l-41 0 0 -90z m80 55 c16 -19 -3 -45 -31 -45 -14 0 -19 7 -19 30
0 23 5 30 19 30 10 0 24 -7 31 -15z m10 -80 c17 -20 -3 -45 -36 -45 -20 0 -24
5 -24 30 0 25 4 30 24 30 13 0 29 -7 36 -15z"/>
<path d="M4130 320 c0 -5 5 -10 10 -10 6 0 10 5 10 10 0 6 -4 10 -10 10 -5 0
-10 -4 -10 -10z"/>
<path d="M801 281 c-43 -12 -36 -30 8 -24 37 5 41 3 41 -15 0 -17 -7 -21 -37
-24 -33 -3 -38 -7 -41 -30 -4 -33 27 -54 57 -38 11 5 27 7 35 4 14 -5 16 4 16
55 0 57 -2 62 -26 71 -14 6 -26 10 -27 9 -1 -1 -13 -4 -26 -8z m49 -90 c0 -20
-36 -36 -46 -20 -10 17 5 39 26 39 13 0 20 -7 20 -19z"/>
<path d="M921 214 c1 -56 3 -64 20 -64 16 0 19 7 19 44 0 41 19 74 33 59 4 -3
7 1 7 9 0 11 -11 15 -40 15 l-39 0 0 -63z"/>
<path d="M3550 201 c0 -5 -9 -11 -21 -14 -16 -4 -20 -12 -17 -33 2 -15 10 -29
18 -31 12 -4 12 -3 2 5 -16 11 -13 43 5 49 7 3 13 -9 16 -29 3 -26 4 -23 5 15
1 26 0 47 -3 47 -3 0 -5 -4 -5 -9z"/>
<path d="M3204 179 c-4 -8 1 -9 16 -4 15 5 20 4 16 -4 -4 -6 -14 -11 -22 -11
-27 0 -11 -34 17 -37 23 -1 24 1 21 33 -3 25 -9 34 -23 34 -10 0 -21 -5 -25
-11z m36 -33 c0 -3 -4 -8 -10 -11 -5 -3 -10 -1 -10 4 0 6 5 11 10 11 6 0 10
-2 10 -4z"/>
<path d="M3375 180 c-5 -9 -1 -10 14 -5 11 3 21 2 21 -3 0 -5 -9 -12 -21 -15
-22 -6 -22 -28 -1 -35 7 -2 10 2 6 12 -3 9 -1 16 5 16 6 0 11 -7 11 -15 0 -8
4 -15 9 -15 4 0 8 15 7 33 -1 25 -6 33 -23 35 -12 2 -24 -2 -28 -8z"/>
<path d="M3450 154 c0 -19 5 -34 10 -34 6 0 10 11 10 25 0 14 5 25 10 25 19 0
10 16 -10 17 -16 1 -20 -4 -20 -33z"/>
<path d="M3723 155 c0 -22 2 -30 4 -17 2 12 2 30 0 40 -3 9 -5 -1 -4 -23z"/>
<path d="M3762 153 c1 -37 1 -37 5 -5 5 40 23 42 23 2 0 -16 5 -30 11 -30 6 0
9 14 7 33 -2 24 -8 33 -25 35 -21 3 -23 -1 -21 -35z"/>
<path d="M3830 155 c0 -19 5 -35 10 -35 6 0 9 3 9 8 -1 4 -1 17 0 30 2 34 19
26 24 -10 4 -32 4 -32 5 5 2 33 0 37 -23 37 -22 0 -25 -4 -25 -35z"/>
<path d="M3903 155 c3 -45 17 -45 17 0 0 19 -4 35 -10 35 -5 0 -9 -16 -7 -35z"/>
<path d="M3940 155 c0 -19 5 -35 10 -35 6 0 10 14 10 30 0 40 18 38 23 -2 4
-32 4 -32 5 5 2 33 0 37 -23 37 -22 0 -25 -4 -25 -35z"/>
<path d="M4015 171 c-8 -27 4 -51 27 -51 11 0 16 -5 13 -10 -4 -6 -16 -8 -28
-5 -20 5 -20 5 -4 -5 31 -20 47 -5 47 45 0 41 -2 45 -24 45 -15 0 -27 -7 -31
-19z m40 -16 c0 -10 -6 -20 -12 -22 -8 -3 -13 5 -13 22 0 17 5 25 13 23 6 -3
12 -13 12 -23z"/>
<path d="M4137 183 c-12 -12 -7 -33 7 -33 8 0 18 -5 22 -12 5 -8 0 -9 -14 -6
-12 4 -20 2 -16 -3 7 -13 31 -11 40 2 4 7 -4 20 -17 31 l-24 20 23 -5 c12 -3
20 -1 16 4 -6 11 -28 12 -37 2z"/>
<path d="M4207 183 c-12 -11 -7 -40 8 -53 13 -10 18 -11 28 -1 9 10 8 11 -4 6
-10 -4 -20 -2 -24 4 -4 7 4 11 20 11 23 0 24 2 15 20 -11 20 -31 26 -43 13z
m33 -13 c0 -5 -7 -10 -16 -10 -8 0 -12 5 -9 10 3 6 10 10 16 10 5 0 9 -4 9
-10z"/>
<path d="M4280 153 c0 -18 5 -33 10 -33 6 0 10 11 10 25 0 14 5 25 10 25 6 0
10 4 10 8 0 4 -9 8 -20 8 -16 0 -20 -7 -20 -33z"/>
<path d="M4343 155 c13 -43 22 -44 36 -4 13 39 13 39 1 39 -5 0 -10 -12 -10
-26 0 -14 -4 -23 -10 -19 -5 3 -10 15 -10 26 0 10 -4 19 -9 19 -5 0 -4 -15 2
-35z"/>
<path d="M4415 178 c-6 -16 -1 -45 8 -54 4 -4 7 9 7 29 0 37 -7 48 -15 25z"/>
<path d="M4454 176 c-10 -25 1 -51 20 -51 11 0 21 7 24 15 4 12 2 13 -9 3 -20
-20 -29 -16 -29 13 0 21 4 25 20 21 11 -3 18 -1 14 4 -8 14 -34 11 -40 -5z"/>
<path d="M4533 183 c-18 -7 -16 -52 3 -60 8 -3 21 0 27 6 9 9 8 11 -4 6 -10
-4 -20 -2 -24 4 -4 7 4 11 19 11 28 0 33 9 14 28 -13 13 -16 13 -35 5z m27
-13 c0 -5 -7 -10 -16 -10 -8 0 -12 5 -9 10 3 6 10 10 16 10 5 0 9 -4 9 -10z"/>
<path d="M3286 155 c2 -11 4 -23 4 -27 0 -15 20 -8 20 7 0 8 5 15 10 15 6 0
10 7 10 15 0 8 -4 15 -10 15 -5 0 -10 -7 -10 -15 0 -18 -17 -20 -23 -2 -2 6
-3 3 -1 -8z"/>
<path d="M3340 156 c-12 -33 -12 -36 -1 -36 9 0 22 52 15 59 -2 2 -8 -8 -14
-23z"/>
<path d="M3626 155 c2 -11 4 -23 4 -27 0 -15 20 -8 20 7 0 8 -4 15 -9 15 -5 0
-11 6 -14 13 -2 6 -3 3 -1 -8z"/>
<path d="M3650 171 c0 -6 5 -13 10 -16 6 -3 10 1 10 9 0 9 -4 16 -10 16 -5 0
-10 -4 -10 -9z"/>
<path d="M3682 155 c-14 -31 -15 -35 -3 -35 8 0 23 51 17 58 -2 1 -8 -9 -14
-23z"/>
</g>
</svg>
