<?xml version="1.0" standalone="no"?>
<!DOCTYPE svg PUBLIC "-//W3C//DTD SVG 20010904//EN"
 "http://www.w3.org/TR/2001/REC-SVG-20010904/DTD/svg10.dtd">
<svg version="1.0" xmlns="http://www.w3.org/2000/svg"
 width="236.000000pt" height="252.000000pt" viewBox="0 0 236.000000 252.000000"
 preserveAspectRatio="xMidYMid meet">

<g transform="translate(0.000000,252.000000) scale(0.100000,-0.100000)"
fill="#000000" stroke="none">
<path d="M233 2408 c-4 -7 -10 -111 -11 -230 l-4 -218 77 0 c125 0 175 39 175
135 0 40 -5 52 -33 80 l-33 33 23 26 c17 20 23 40 23 72 0 56 -12 79 -50 99
-36 19 -155 21 -167 3z m37 -12 c0 -3 -4 -8 -10 -11 -5 -3 -10 -1 -10 4 0 6 5
11 10 11 6 0 10 -2 10 -4z m98 -48 c21 -21 15 -85 -10 -102 -46 -33 -58 -22
-58 49 0 65 0 65 28 65 15 0 33 -5 40 -12z m-111 -120 c-3 -8 -6 -5 -6 6 -1
11 2 17 5 13 3 -3 4 -12 1 -19z m117 -71 c9 -7 20 -31 23 -54 7 -50 -20 -83
-67 -83 l-30 0 0 75 0 75 28 0 c16 0 36 -6 46 -13z"/>
<path d="M662 2193 l3 -228 33 -3 32 -3 0 88 c0 77 10 127 23 113 2 -3 23 -49
47 -102 41 -96 43 -98 76 -98 21 0 34 5 34 13 0 6 -25 65 -56 129 l-57 117 56
95 c32 52 57 97 57 101 0 3 -16 5 -36 3 -34 -3 -39 -8 -90 -98 l-54 -94 0 97
0 97 -35 0 -35 0 2 -227z m178 131 c0 -8 -19 -13 -24 -6 -3 5 1 9 9 9 8 0 15
-2 15 -3z"/>
<path d="M1100 2190 l0 -231 103 3 c101 3 102 3 102 28 0 24 -3 25 -67 28
l-68 3 0 199 0 200 -35 0 -35 0 0 -230z"/>
<path d="M1410 2409 c0 -5 23 -65 50 -131 48 -117 50 -124 50 -219 l0 -99 35
0 35 0 0 98 c0 95 1 101 49 208 70 159 69 154 28 154 -32 0 -36 -4 -52 -47
-10 -27 -27 -68 -38 -92 l-19 -44 -36 91 c-34 91 -35 92 -68 92 -19 0 -34 -5
-34 -11z"/>
<path d="M1875 2338 c-3 -46 -5 -148 -3 -228 l3 -145 33 -3 32 -3 0 153 1 153
39 -95 c22 -52 52 -121 67 -153 25 -54 29 -58 58 -55 l30 3 3 228 2 228 -32
-3 -33 -3 0 -153 c0 -83 -1 -152 -1 -152 -1 0 -25 57 -54 128 -74 180 -75 182
-109 182 l-29 0 -7 -82z"/>
<path d="M285 1803 c-31 -8 -43 -22 -38 -44 5 -17 13 -19 57 -17 50 3 51 3 51
-27 0 -25 -5 -30 -32 -36 -74 -15 -109 -62 -99 -134 6 -53 48 -89 91 -80 17 4
51 6 76 6 l47 -1 -4 127 c-3 71 -10 141 -16 156 -18 45 -71 65 -133 50z m85
-206 c0 -64 -62 -107 -76 -53 -9 37 -1 59 26 73 40 20 50 16 50 -20z"/>
<path d="M653 1802 l-23 -3 0 -759 c0 -460 4 -761 9 -765 13 -7 1489 -7 1502
0 5 4 9 302 9 761 0 594 -3 756 -12 759 -14 6 -1450 12 -1485 7z m957 -68 c0
-7 -18 -41 -47 -87 -20 -32 -26 -36 -38 -24 -8 8 -25 12 -38 10 -30 -6 -45 13
-18 22 11 3 42 24 68 46 43 35 73 49 73 33z m188 -159 l2 -70 -19 25 c-18 22
-22 24 -42 12 -27 -17 -37 -8 -17 15 9 10 21 35 28 56 8 27 17 37 28 35 14 -3
18 -17 20 -73z m-288 -20 c40 -21 40 -62 -4 -187 -50 -146 -106 -205 -167
-174 -87 43 -103 218 -26 281 128 104 140 109 197 80z m-290 -70 c0 -9 -9 -34
-21 -56 -14 -28 -25 -39 -35 -35 -9 3 -27 6 -40 6 -28 0 -33 27 -6 37 9 4 32
19 50 35 37 31 52 35 52 13z m544 -24 c10 -11 24 -37 32 -58 18 -51 18 -206 0
-241 -18 -35 -65 -78 -94 -87 -32 -10 -92 3 -92 19 0 16 -27 29 -41 20 -35
-21 -7 118 44 221 37 75 93 145 116 145 10 0 26 -9 35 -19z m-660 -97 c21 -8
112 -131 131 -177 20 -49 19 -80 -4 -108 -16 -20 -29 -24 -83 -25 -46 -1 -73
-7 -98 -22 -42 -26 -111 -29 -134 -6 -24 23 -20 94 9 180 33 97 50 123 100
145 44 20 55 22 79 13z m846 -309 c0 -75 -12 -99 -24 -49 -5 17 -12 24 -21 20
-50 -20 -51 -20 -30 5 12 13 28 41 38 62 26 57 37 46 37 -38z m-555 -100 c20
-14 48 -45 63 -68 27 -40 27 -41 30 -257 l3 -217 -25 -31 c-54 -63 -133 -74
-219 -31 -31 16 -49 19 -93 13 -64 -8 -99 10 -116 57 -6 18 -17 29 -29 29 -31
0 -125 39 -144 60 -19 21 -44 123 -45 181 0 48 51 149 92 179 30 23 41 25 124
22 107 -3 123 2 189 58 45 37 54 41 92 37 26 -3 57 -15 78 -32z m455 2 c14 -7
33 -29 43 -49 16 -34 17 -44 6 -94 -14 -63 -56 -135 -91 -158 -46 -30 -80 -30
-120 1 -20 15 -50 36 -67 45 -94 52 -92 188 4 241 48 26 184 35 225 14z"/>
<path d="M280 1040 l0 -170 35 0 35 0 -1 110 c-1 124 11 160 56 160 26 0 29 9
19 48 -7 25 -30 28 -61 7 -19 -13 -22 -13 -27 0 -3 8 -17 15 -31 15 l-25 0 0
-170z"/>
<path d="M240 509 l0 -240 33 3 32 3 5 70 5 70 38 -72 c35 -69 39 -73 72 -73
19 0 35 3 35 6 0 3 -20 45 -45 93 -25 48 -45 90 -45 94 0 3 18 34 40 68 42 65
41 83 -1 77 -21 -3 -43 -29 -94 -113 -7 -11 -9 23 -6 110 3 136 1 145 -46 145
l-23 0 0 -241z"/>
</g>
</svg>
